<svg width="16" height="15" viewBox="0 0 16 15" fill="none" xmlns="http://www.w3.org/2000/svg">
<path d="M10.7091 8.10909L9.90909 7.30909C10.2242 6.44848 10.0606 5.73333 9.41818 5.16364C8.77576 4.59394 8.07879 4.44848 7.32727 4.72727L6.52727 3.92727C6.73333 3.79394 6.96364 3.69697 7.21818 3.63636C7.47273 3.57576 7.73333 3.54545 8 3.54545C8.86061 3.54545 9.59091 3.84545 10.1909 4.44545C10.7909 5.04545 11.0909 5.77576 11.0909 6.63636C11.0909 6.90303 11.0576 7.16667 10.9909 7.42727C10.9242 7.68788 10.8303 7.91515 10.7091 8.10909ZM13.0545 10.4545L12.3273 9.72727C12.9212 9.29091 13.4394 8.80303 13.8818 8.26364C14.3242 7.72424 14.6485 7.18182 14.8545 6.63636C14.2485 5.29091 13.3394 4.22727 12.1273 3.44545C10.9152 2.66364 9.6 2.27273 8.18182 2.27273C7.67273 2.27273 7.15152 2.32121 6.61818 2.41818C6.08485 2.51515 5.66667 2.6303 5.36364 2.76364L4.52727 1.90909C4.95152 1.71515 5.49394 1.54545 6.15455 1.4C6.81515 1.25455 7.46061 1.18182 8.09091 1.18182C9.82424 1.18182 11.4091 1.67576 12.8455 2.66364C14.2818 3.65152 15.3333 4.97576 16 6.63636C15.6848 7.41212 15.2788 8.12121 14.7818 8.76364C14.2848 9.40606 13.7091 9.9697 13.0545 10.4545ZM14.1091 14.5636L11.0545 11.5636C10.6303 11.7333 10.1515 11.8636 9.61818 11.9545C9.08485 12.0455 8.54545 12.0909 8 12.0909C6.2303 12.0909 4.62424 11.597 3.18182 10.6091C1.73939 9.62121 0.678788 8.29697 0 6.63636C0.242424 6.00606 0.578788 5.39091 1.00909 4.79091C1.43939 4.19091 1.96364 3.61818 2.58182 3.07273L0.290909 0.781818L1.05455 0L14.8182 13.7636L14.1091 14.5636ZM3.32727 3.83636C2.87879 4.16364 2.44545 4.59394 2.02727 5.12727C1.60909 5.66061 1.30909 6.16364 1.12727 6.63636C1.74545 7.98182 2.67576 9.04545 3.91818 9.82727C5.16061 10.6091 6.5697 11 8.14545 11C8.54545 11 8.93939 10.9758 9.32727 10.9273C9.71515 10.8788 10.0061 10.8061 10.2 10.7091L9.03636 9.54545C8.90303 9.60606 8.73939 9.65152 8.54545 9.68182C8.35151 9.71212 8.1697 9.72727 8 9.72727C7.15152 9.72727 6.42424 9.4303 5.81818 8.83636C5.21212 8.24242 4.90909 7.50909 4.90909 6.63636C4.90909 6.45455 4.92424 6.27273 4.95455 6.09091C4.98485 5.90909 5.0303 5.74545 5.09091 5.6L3.32727 3.83636Z" fill="#737373"/>
</svg>
