<svg width="16" height="11" viewBox="0 0 16 11" fill="none" xmlns="http://www.w3.org/2000/svg">
<path d="M8.00215 8.54545C8.86132 8.54545 9.59091 8.24474 10.1909 7.64331C10.7909 7.04189 11.0909 6.31159 11.0909 5.4524C11.0909 4.59322 10.7902 3.86364 10.1888 3.26364C9.58735 2.66364 8.85704 2.36364 7.99785 2.36364C7.13868 2.36364 6.40909 2.66435 5.80909 3.26578C5.20909 3.8672 4.90909 4.5975 4.90909 5.45669C4.90909 6.31587 5.20981 7.04545 5.81124 7.64545C6.41265 8.24545 7.14296 8.54545 8.00215 8.54545ZM7.99573 7.49091C7.42888 7.49091 6.94848 7.29252 6.55455 6.89573C6.16061 6.49893 5.96364 6.01711 5.96364 5.45027C5.96364 4.88342 6.16203 4.40303 6.55882 4.00909C6.95562 3.61515 7.43744 3.41818 8.00427 3.41818C8.57112 3.41818 9.05151 3.61658 9.44545 4.01336C9.83939 4.41016 10.0364 4.89198 10.0364 5.45882C10.0364 6.02567 9.83797 6.50606 9.44118 6.9C9.04438 7.29394 8.56256 7.49091 7.99573 7.49091ZM8 10.9091C6.2303 10.9091 4.6303 10.4061 3.2 9.4C1.7697 8.39394 0.70303 7.07879 0 5.45455C0.70303 3.8303 1.7697 2.51515 3.2 1.50909C4.6303 0.50303 6.2303 0 8 0C9.7697 0 11.3697 0.50303 12.8 1.50909C14.2303 2.51515 15.297 3.8303 16 5.45455C15.297 7.07879 14.2303 8.39394 12.8 9.4C11.3697 10.4061 9.7697 10.9091 8 10.9091ZM7.99693 9.81818C9.46564 9.81818 10.8152 9.42121 12.0455 8.62727C13.2758 7.83333 14.2121 6.77576 14.8545 5.45455C14.2121 4.13333 13.2768 3.07576 12.0485 2.28182C10.8203 1.48788 9.47178 1.09091 8.00307 1.09091C6.53436 1.09091 5.18485 1.48788 3.95455 2.28182C2.72424 3.07576 1.78182 4.13333 1.12727 5.45455C1.78182 6.77576 2.72322 7.83333 3.95147 8.62727C5.17974 9.42121 6.52822 9.81818 7.99693 9.81818Z" fill="#737373"/>
</svg>
